<?xml version="1.0" standalone="no"?><!DOCTYPE svg PUBLIC "-//W3C//DTD SVG 1.1//EN" "http://www.w3.org/Graphics/SVG/1.1/DTD/svg11.dtd"><svg t="1624194761146" class="icon" viewBox="0 0 1024 1024" version="1.1" xmlns="http://www.w3.org/2000/svg" p-id="3169" xmlns:xlink="http://www.w3.org/1999/xlink" width="200" height="200"><defs><style type="text/css"></style></defs><path d="M954.368 927.04l-27.264 27.264c-7.552 7.552-19.776 7.552-27.264 0l-205.952-205.952c-151.488 124.16-375.424 115.52-516.864-25.92-150.656-150.656-150.656-394.88 0-545.536 150.656-150.656 394.88-150.656 545.536 0 141.44 141.44 150.016 365.312 25.92 516.864l205.952 205.952C961.856 907.328 961.856 919.552 954.368 927.04zM667.968 231.552c-120.512-120.512-315.904-120.512-436.416 0-120.512 120.512-120.512 315.904 0 436.416 120.512 120.512 315.904 120.512 436.416 0C788.48 547.456 788.48 352.064 667.968 231.552z" p-id="3170" fill="#A5A5A6"></path></svg>